<?xml version="1.0" encoding="UTF-8"?>
<svg version="1.1" xmlns="http://www.w3.org/2000/svg" width="500" height="500">
<path d="M0 0 C165 0 330 0 500 0 C500 165 500 330 500 500 C335 500 170 500 0 500 C0 335 0 170 0 0 Z " fill="#FEFEFE" transform="translate(0,0)"/>
<path d="M0 0 C30.7413496 10.75302055 66.3301752 18.02557606 98.44287109 9.85449219 C99.2544165 9.65025635 100.06596191 9.44602051 100.90209961 9.2355957 C109.09110596 7.10070712 116.93993111 4.21181048 124.86279297 1.25878906 C138.00262344 -3.56925844 149.77421643 -6.90885199 163.88037109 -6.83300781 C164.57097626 -6.83163818 165.26158142 -6.83026855 165.97311401 -6.82885742 C192.57527032 -6.66066595 216.63016065 4.10796301 235.44677734 22.76855469 C246.2768883 33.95855628 254.24209916 47.14747228 261.44287109 60.85449219 C261.94318848 61.80388672 261.94318848 61.80388672 262.45361328 62.77246094 C272.7962115 82.7372774 279.40220977 104.66993884 285.66357422 126.19433594 C286.41027856 128.74323646 287.18123587 131.28351917 287.95849609 133.82324219 C295.46115348 158.68961353 300.27785508 184.10052308 303.44287109 209.85449219 C303.54599609 210.60802979 303.64912109 211.36156738 303.75537109 212.13793945 C307.4930473 241.1549882 306.36190523 276.52052936 288.44287109 300.85449219 C287.32912109 302.46324219 287.32912109 302.46324219 286.19287109 304.10449219 C276.95231962 313.34504366 266.35283094 317.46660391 253.50537109 317.47949219 C229.22029547 317.37902887 211.04902924 302.22364522 194.44287109 285.85449219 C193.91290527 285.33822266 193.38293945 284.82195312 192.83691406 284.29003906 C186.768203 278.37345818 180.90686009 272.33947296 175.44287109 265.85449219 C171.47559286 261.15912574 167.48396658 256.48654972 163.44287109 251.85449219 C162.76353516 251.07460938 162.08419922 250.29472656 161.38427734 249.49121094 C152.45281245 239.9066927 140.78639738 233.80331603 128.44287109 229.85449219 C127.82057617 229.6434082 127.19828125 229.43232422 126.55712891 229.21484375 C84.27154618 215.02239336 27.97222802 217.25759448 -12.55712891 235.85449219 C-28.00510069 243.56918327 -38.48720785 255.87523577 -49.65478516 268.69824219 C-68.78252313 290.37896367 -91.75221148 314.96914047 -122.18603516 318.24511719 C-135.4763916 318.65360235 -147.56267112 313.6864978 -157.30712891 304.60449219 C-167.78458179 293.26823169 -172.97537758 276.98594467 -174.55712891 261.85449219 C-174.640354 261.10304932 -174.7235791 260.35160645 -174.80932617 259.57739258 C-177.24863682 235.75733743 -175.49659553 212.38866716 -171.55712891 188.85449219 C-171.39116211 187.81856934 -171.22519531 186.78264648 -171.05419922 185.71533203 C-162.61166995 133.85528447 -148.0186635 70.29059075 -112.55712891 29.85449219 C-111.51492187 28.61505859 -111.51492187 28.61505859 -110.45166016 27.35058594 C-82.53140817 -5.01713982 -39.67106563 -13.99309294 0 0 Z " fill="#00BF63" transform="translate(185.55712890625,94.1455078125)"/>
<path d="M0 0 C4.9231426 2.4615713 7.94592794 6.32106837 9.9609375 11.38671875 C10.55045547 16.074088 10.43523688 20.67213361 10.2734375 25.38671875 C10.25087891 26.63839844 10.22832031 27.89007813 10.20507812 29.1796875 C10.14648528 32.24995242 10.06449152 35.31769636 9.9609375 38.38671875 C10.8080127 38.36577148 11.65508789 38.34482422 12.52783203 38.32324219 C15.69234143 38.2547782 18.85647141 38.20477888 22.02148438 38.16699219 C23.38717118 38.14696556 24.75277319 38.11973543 26.11816406 38.08496094 C28.08880852 38.03605443 30.06009733 38.01580528 32.03125 37.99609375 C33.80653076 37.96467285 33.80653076 37.96467285 35.61767578 37.93261719 C40.82809623 38.64032728 43.8746727 41.18611029 47.3359375 45.01171875 C50.03846417 50.62465876 49.82216393 55.85088537 47.8359375 61.69921875 C44.95738034 65.82515067 41.82730797 68.76459526 36.9609375 70.38671875 C34.89594858 70.46987627 32.8283586 70.49407753 30.76171875 70.484375 C28.94897461 70.47954102 28.94897461 70.47954102 27.09960938 70.47460938 C25.2056543 70.46204102 25.2056543 70.46204102 23.2734375 70.44921875 C21.36208008 70.44245117 21.36208008 70.44245117 19.41210938 70.43554688 C16.26167186 70.42374748 13.11132801 70.40728472 9.9609375 70.38671875 C9.98712158 71.16273438 10.01330566 71.93875 10.0402832 72.73828125 C10.14484477 76.28755075 10.20945304 79.83649526 10.2734375 83.38671875 C10.31533203 84.60746094 10.35722656 85.82820313 10.40039062 87.0859375 C10.50096952 94.52877559 10.01021624 99.69716075 4.9609375 105.38671875 C0.6687486 109.41877499 -4.09858488 109.74277182 -9.79296875 109.66796875 C-14.52886323 109.0749524 -17.27663559 106.23157019 -20.3515625 102.82421875 C-23.08182185 98.88051079 -23.15870265 95.87007163 -23.13671875 91.1875 C-23.13349609 89.97900391 -23.13027344 88.77050781 -23.12695312 87.52539062 C-23.11438477 85.63143555 -23.11438477 85.63143555 -23.1015625 83.69921875 C-23.09705078 82.42498047 -23.09253906 81.15074219 -23.08789062 79.83789062 C-23.07609123 76.68745311 -23.05962847 73.53710926 -23.0390625 70.38671875 C-23.82555176 70.40766602 -24.61204102 70.42861328 -25.42236328 70.45019531 C-29.00279848 70.53359628 -32.58302892 70.58545651 -36.1640625 70.63671875 C-37.4015625 70.67023438 -38.6390625 70.70375 -39.9140625 70.73828125 C-51.2881283 70.86058303 -51.2881283 70.86058303 -56.0390625 66.38671875 C-60.26893543 61.69956226 -61.45747735 58.00111898 -61.38671875 51.8046875 C-60.79296696 47.67511041 -58.83540376 44.43852822 -56.0390625 41.38671875 C-52.06370907 38.49535077 -49.3027345 38.02694242 -44.42578125 38.09375 C-43.17861328 38.10341797 -41.93144531 38.11308594 -40.64648438 38.12304688 C-39.35291016 38.14818359 -38.05933594 38.17332031 -36.7265625 38.19921875 C-34.75719727 38.21952148 -34.75719727 38.21952148 -32.74804688 38.24023438 C-29.51130173 38.27554432 -26.27539145 38.32486595 -23.0390625 38.38671875 C-23.06000977 37.56993652 -23.08095703 36.7531543 -23.10253906 35.91162109 C-23.1859138 32.1951132 -23.23779238 28.47880242 -23.2890625 24.76171875 C-23.33933594 22.83392578 -23.33933594 22.83392578 -23.390625 20.8671875 C-23.51293832 9.06395256 -23.51293832 9.06395256 -19.0390625 4.38671875 C-13.21384756 -0.74501822 -7.65968611 -2.30377532 0 0 Z " fill="#FDFEFD" transform="translate(140.0390625,173.61328125)"/>
<path d="M0 0 C6.90435978 3.11640555 11.03143391 7.77903651 14.19921875 14.5859375 C16.36574787 20.98837107 15.80946595 27.37168723 13.0078125 33.47265625 C9.1000539 40.40755179 3.72922248 44.82353965 -3.9296875 47.16015625 C-11.60288317 48.32668937 -17.58921172 46.56768967 -23.9296875 42.16015625 C-29.33515124 37.29423973 -32.51965629 32.75510915 -33.17578125 25.40234375 C-33.44959703 18.7809803 -33.06651784 13.50356211 -28.9296875 8.16015625 C-20.54335441 -0.51832369 -12.08877226 -3.46544805 0 0 Z " fill="#FBFEFD" transform="translate(352.9296875,225.83984375)"/>
<path d="M0 0 C6.54327075 3.97118592 10.76222591 9.75480696 12.80859375 17.09765625 C14.10271213 24.7402799 12.15037039 30.76544297 7.80859375 37.09765625 C3.4311462 42.03658164 -1.9311633 45.60211911 -8.609375 46.37890625 C-16.19896855 46.65447394 -21.46014289 44.68440736 -27.37890625 39.91015625 C-33.28772961 34.39142997 -35.39140453 29.71645293 -35.69140625 21.59765625 C-35.45163646 14.90730571 -34.19868937 10.2869783 -29.578125 5.38671875 C-21.20185321 -2.22807379 -10.70475028 -4.78486759 0 0 Z " fill="#FBFEFD" transform="translate(400.19140625,181.90234375)"/>
</svg>
